<?xml version="1.0" encoding="utf-8"?>
<!-- Generator: Adobe Illustrator 26.0.0, SVG Export Plug-In . SVG Version: 6.00 Build 0)  -->
<svg version="1.1" id="Capa_1" xmlns="http://www.w3.org/2000/svg" xmlns:xlink="http://www.w3.org/1999/xlink" x="0px" y="0px"
	 viewBox="0 0 142.83 142.07" style="enable-background:new 0 0 142.83 142.07;" xml:space="preserve">
<style type="text/css">
	.st0{fill:url(#SVGID_1_);}
	.st1{fill:url(#SVGID_00000173845718286214264610000005511158337589738939_);}
	.st2{fill:url(#SVGID_00000181802165318675006480000006797294378617370508_);}
	.st3{fill:url(#SVGID_00000112602966811477395230000015889646272641700515_);}
	.st4{fill:url(#SVGID_00000139990752346746460870000009669140275233409683_);}
	.st5{fill:url(#SVGID_00000047055514960739464950000011056131377124303281_);}
	.st6{fill:#FFFFFF;}
	.st7{font-family:'Causten-Bold';}
	.st8{font-size:61.8248px;}
	.st9{letter-spacing:-2;}
	.st10{fill:url(#SVGID_00000098221659442063556890000015295103716637473205_);}
	.st11{fill:url(#SVGID_00000070835519783060621930000009956680645492349316_);}
	.st12{fill:url(#SVGID_00000182522750427639975990000012598716475413229247_);}
	.st13{fill:url(#SVGID_00000044156435752125595780000013085098050570549639_);}
	.st14{fill:url(#SVGID_00000168079426935005467530000012265419398229931187_);}
	.st15{fill:url(#SVGID_00000111888257255469656700000011410709767922493609_);}
</style>
<text transform="matrix(1 0 0 1 272.3123 139.813)"><tspan x="0" y="0" class="st6" style="font-family:'Objective-Bold'; font-size:82.8372px; letter-spacing:-3;">Consultor</tspan><tspan x="384.44" y="0" style="fill:#E7296E; font-family:'Objective-Bold'; font-size:82.8372px; letter-spacing:-3;">IA</tspan></text>
<g>
	<linearGradient id="SVGID_1_" gradientUnits="userSpaceOnUse" x1="797.1917" y1="95.3648" x2="830.3736" y2="144.7753">
		<stop  offset="0" style="stop-color:#791957"/>
		<stop  offset="0.181" style="stop-color:#941F5D"/>
		<stop  offset="0.4333" style="stop-color:#B72665"/>
		<stop  offset="0.6627" style="stop-color:#D12C6A"/>
		<stop  offset="0.8593" style="stop-color:#E22F6D"/>
		<stop  offset="1" style="stop-color:#E8316E"/>
	</linearGradient>
	<path class="st0" d="M824.73,133.74c11.47-19.87,4.67-45.29-15.21-56.76c-3.61-2.08-7.4-3.56-11.25-4.46l-10.39,14.94l23.01,39.29
		l0,0c3.34,5.34,3.7,12.3,0.33,18.14c-1.57,2.73-3.77,4.87-6.3,6.35C812.97,147.84,820.02,141.89,824.73,133.74z"/>
	
		<linearGradient id="SVGID_00000105405444791068500870000006148416929809545151_" gradientUnits="userSpaceOnUse" x1="798.0294" y1="76.9157" x2="829.0614" y2="123.125">
		<stop  offset="0" style="stop-color:#791957"/>
		<stop  offset="0.181" style="stop-color:#941F5D"/>
		<stop  offset="0.4333" style="stop-color:#B72665"/>
		<stop  offset="0.6627" style="stop-color:#D12C6A"/>
		<stop  offset="0.8593" style="stop-color:#E22F6D"/>
		<stop  offset="1" style="stop-color:#E8316E"/>
	</linearGradient>
	<path style="fill:url(#SVGID_00000105405444791068500870000006148416929809545151_);" d="M809.52,76.98
		c-2.78-1.61-5.67-2.84-8.62-3.75l-2.74,3.94l23.01,39.29l0,0c3.34,5.33,4.38,15.29,1.03,21.13c0.9-1.22,1.75-2.5,2.52-3.85
		C836.2,113.86,829.39,88.45,809.52,76.98z"/>
	
		<linearGradient id="SVGID_00000142885392153948955860000018199688234866889138_" gradientUnits="userSpaceOnUse" x1="763.7244" y1="123.5531" x2="793.8633" y2="65.5935">
		<stop  offset="0" style="stop-color:#791957"/>
		<stop  offset="0.0447" style="stop-color:#7E1A58"/>
		<stop  offset="1" style="stop-color:#E8316E"/>
	</linearGradient>
	<path style="fill:url(#SVGID_00000142885392153948955860000018199688234866889138_);" d="M788.74,71.41
		c-22.95,0-41.55,18.6-41.55,41.55c0,4.17,0.62,8.18,1.76,11.98l18.13,1.52l22.52-39.57l0,0c2.95-5.56,8.8-9.36,15.54-9.36
		c3.15,0,6.1,0.83,8.65,2.28C806.83,74.54,798.16,71.41,788.74,71.41z"/>
	
		<linearGradient id="SVGID_00000060022962156617782020000006110526603711251847_" gradientUnits="userSpaceOnUse" x1="1732.0537" y1="1455.5378" x2="1763.0863" y2="1501.7479" gradientTransform="matrix(-0.5 -0.866 0.866 -0.5 358.4122 2350.6699)">
		<stop  offset="0" style="stop-color:#791957"/>
		<stop  offset="0.181" style="stop-color:#941F5D"/>
		<stop  offset="0.4333" style="stop-color:#B72665"/>
		<stop  offset="0.6627" style="stop-color:#D12C6A"/>
		<stop  offset="0.8593" style="stop-color:#E22F6D"/>
		<stop  offset="1" style="stop-color:#E8316E"/>
	</linearGradient>
	<path style="fill:url(#SVGID_00000060022962156617782020000006110526603711251847_);" d="M747.19,112.96
		c0,3.21,0.37,6.33,1.06,9.33l4.78,0.4l22.52-39.57l0,0c2.95-5.55,11.05-11.44,17.79-11.46c-1.51-0.17-3.04-0.26-4.6-0.26
		C765.79,71.41,747.19,90.01,747.19,112.96z"/>
	
		<linearGradient id="SVGID_00000173867796445951571510000009176756627305519798_" gradientUnits="userSpaceOnUse" x1="740.3296" y1="131.1721" x2="806.7194" y2="131.1721">
		<stop  offset="0" style="stop-color:#E8316E"/>
		<stop  offset="0.207" style="stop-color:#E5306E"/>
		<stop  offset="0.3802" style="stop-color:#DB2E6C"/>
		<stop  offset="0.5411" style="stop-color:#CB2B69"/>
		<stop  offset="0.6948" style="stop-color:#B62664"/>
		<stop  offset="0.8431" style="stop-color:#9B205F"/>
		<stop  offset="0.9858" style="stop-color:#7C1A58"/>
		<stop  offset="1" style="stop-color:#791957"/>
	</linearGradient>
	<path style="fill:url(#SVGID_00000173867796445951571510000009176756627305519798_);" d="M811.22,144.88
		c3.37-5.84,3.01-12.8-0.33-18.14l0,0l-1.03-1.77l-44.12,0.27l0,0c-6.3,0.22-12.5-2.95-15.87-8.78c-1.57-2.73-2.33-5.7-2.35-8.64
		c-1.09,8.67,0.54,17.76,5.25,25.91c10.61,18.38,33.14,25.57,52.19,17.48C807.46,149.73,809.65,147.6,811.22,144.88z"/>
	
		<linearGradient id="SVGID_00000090255280572888878760000005736984678656307883_" gradientUnits="userSpaceOnUse" x1="813.6678" y1="141.6571" x2="767.4813" y2="142.0917">
		<stop  offset="0" style="stop-color:#791957"/>
		<stop  offset="0.0142" style="stop-color:#7C1A58"/>
		<stop  offset="0.1569" style="stop-color:#9B205F"/>
		<stop  offset="0.3052" style="stop-color:#B62664"/>
		<stop  offset="0.4589" style="stop-color:#CB2B69"/>
		<stop  offset="0.6198" style="stop-color:#DB2E6C"/>
		<stop  offset="0.793" style="stop-color:#E5306E"/>
		<stop  offset="1" style="stop-color:#E8316E"/>
	</linearGradient>
	<path style="fill:url(#SVGID_00000090255280572888878760000005736984678656307883_);" d="M754.22,136.07
		c0.25,0.38,0.5,0.75,0.76,1.12c0.16,0.22,0.33,0.44,0.49,0.66c0.24,0.32,0.48,0.64,0.73,0.96c0.18,0.23,0.37,0.45,0.55,0.67
		c0.24,0.29,0.48,0.58,0.73,0.87c0.2,0.23,0.4,0.45,0.6,0.67c0.24,0.27,0.49,0.53,0.74,0.79c0.21,0.22,0.43,0.44,0.65,0.66
		c0.25,0.25,0.5,0.49,0.75,0.73c0.23,0.22,0.46,0.43,0.69,0.64c0.25,0.23,0.51,0.45,0.76,0.67c0.24,0.21,0.49,0.41,0.73,0.62
		c0.25,0.21,0.51,0.41,0.77,0.61c0.26,0.2,0.52,0.4,0.78,0.6c0.25,0.19,0.51,0.37,0.76,0.55c0.28,0.2,0.55,0.39,0.84,0.58
		c0.24,0.16,0.49,0.32,0.73,0.47c0.3,0.19,0.6,0.39,0.91,0.57c0.21,0.13,0.43,0.25,0.65,0.38c0.34,0.2,0.69,0.4,1.04,0.59
		c0.11,0.06,0.22,0.11,0.32,0.17c1.5,0.8,3.05,1.5,4.63,2.11c0.04,0.02,0.08,0.03,0.12,0.05c0.48,0.18,0.97,0.35,1.45,0.52
		c0.11,0.04,0.22,0.08,0.33,0.12c0.47,0.15,0.94,0.3,1.42,0.43c0.13,0.04,0.26,0.08,0.39,0.11c0.47,0.13,0.95,0.25,1.43,0.37
		c0.13,0.03,0.26,0.06,0.39,0.1c0.48,0.11,0.97,0.21,1.45,0.31c0.12,0.02,0.25,0.05,0.37,0.07c0.5,0.09,1,0.18,1.5,0.25
		c0.11,0.02,0.22,0.03,0.33,0.05c0.52,0.07,1.04,0.14,1.57,0.19c0.08,0.01,0.16,0.02,0.25,0.02c0.55,0.05,1.1,0.1,1.66,0.13
		c0.04,0,0.08,0,0.13,0.01c6.14,0.32,12.4-0.72,18.32-3.24c2.52-1.49,4.71-3.62,6.27-6.33c1.08-1.87,1.77-3.85,2.11-5.85
		l-43.83,0.27l0,0c-6.28,0.22-15.43-3.85-18.82-9.67c0,0,0,0,0,0c0.28,0.64,0.58,1.28,0.9,1.91c0.04,0.09,0.09,0.17,0.13,0.26
		c0.33,0.65,0.67,1.3,1.04,1.94c0.35,0.6,0.71,1.18,1.08,1.76C753.96,135.69,754.09,135.88,754.22,136.07z"/>
</g>
<text transform="matrix(1 0 0 1 -87.4075 192.9292)" class="st6 st7 st8 st9">Consultor</text>
<g>
	
		<linearGradient id="SVGID_00000065070579137344109550000011628758091933145755_" gradientUnits="userSpaceOnUse" x1="83.9887" y1="43.3788" x2="133.9403" y2="117.7609">
		<stop  offset="0" style="stop-color:#791957"/>
		<stop  offset="0.181" style="stop-color:#941F5D"/>
		<stop  offset="0.4333" style="stop-color:#B72665"/>
		<stop  offset="0.6627" style="stop-color:#D12C6A"/>
		<stop  offset="0.8593" style="stop-color:#E22F6D"/>
		<stop  offset="1" style="stop-color:#E8316E"/>
	</linearGradient>
	<path style="fill:url(#SVGID_00000065070579137344109550000011628758091933145755_);" d="M125.44,101.15
		c17.27-29.92,7.02-68.18-22.9-85.45c-5.43-3.14-11.14-5.35-16.94-6.72L69.97,31.47l34.64,59.15l0,0c5.03,8.04,5.57,18.52,0.5,27.3
		c-2.37,4.1-5.68,7.32-9.49,9.56C107.74,122.38,118.36,113.42,125.44,101.15z"/>
	
		<linearGradient id="SVGID_00000063628401325394940020000003282674967979118737_" gradientUnits="userSpaceOnUse" x1="85.2496" y1="15.6059" x2="131.9649" y2="85.1688">
		<stop  offset="0" style="stop-color:#791957"/>
		<stop  offset="0.181" style="stop-color:#941F5D"/>
		<stop  offset="0.4333" style="stop-color:#B72665"/>
		<stop  offset="0.6627" style="stop-color:#D12C6A"/>
		<stop  offset="0.8593" style="stop-color:#E22F6D"/>
		<stop  offset="1" style="stop-color:#E8316E"/>
	</linearGradient>
	<path style="fill:url(#SVGID_00000063628401325394940020000003282674967979118737_);" d="M102.55,15.7
		c-4.19-2.42-8.54-4.28-12.97-5.64l-4.12,5.93l34.64,59.15l0,0c5.02,8.02,6.59,23.02,1.55,31.81c1.35-1.84,2.63-3.77,3.8-5.8
		C142.72,71.23,132.46,32.97,102.55,15.7z"/>
	
		<linearGradient id="SVGID_00000130628200263733916240000010578533883873579394_" gradientUnits="userSpaceOnUse" x1="33.6072" y1="85.8132" x2="78.9781" y2="-1.4385">
		<stop  offset="0" style="stop-color:#791957"/>
		<stop  offset="0.0447" style="stop-color:#7E1A58"/>
		<stop  offset="1" style="stop-color:#E8316E"/>
	</linearGradient>
	<path style="fill:url(#SVGID_00000130628200263733916240000010578533883873579394_);" d="M71.27,7.32
		c-34.55,0-62.55,28.01-62.55,62.55c0,6.27,0.93,12.32,2.65,18.03l27.3,2.29l33.9-59.57l0.01,0c4.45-8.38,13.25-14.08,23.4-14.08
		c4.74,0,9.18,1.25,13.03,3.44C98.5,12.03,85.44,7.32,71.27,7.32z"/>
	
		<linearGradient id="SVGID_00000006697949081080607850000017215468245156157344_" gradientUnits="userSpaceOnUse" x1="2132.8198" y1="837.5077" x2="2179.5359" y2="907.0719" gradientTransform="matrix(-0.5 -0.866 0.866 -0.5 358.4122 2350.6699)">
		<stop  offset="0" style="stop-color:#791957"/>
		<stop  offset="0.181" style="stop-color:#941F5D"/>
		<stop  offset="0.4333" style="stop-color:#B72665"/>
		<stop  offset="0.6627" style="stop-color:#D12C6A"/>
		<stop  offset="0.8593" style="stop-color:#E22F6D"/>
		<stop  offset="1" style="stop-color:#E8316E"/>
	</linearGradient>
	<path style="fill:url(#SVGID_00000006697949081080607850000017215468245156157344_);" d="M8.71,69.87c0,4.83,0.56,9.53,1.6,14.05
		l7.19,0.6l33.9-59.57l0.01,0c4.44-8.36,16.64-17.22,26.77-17.25c-2.27-0.25-4.58-0.39-6.92-0.39C36.72,7.32,8.71,35.32,8.71,69.87z
		"/>
	
		<linearGradient id="SVGID_00000040569605022967416530000009269006579265317536_" gradientUnits="userSpaceOnUse" x1="-1.611" y1="97.2829" x2="98.3315" y2="97.2829">
		<stop  offset="0" style="stop-color:#E8316E"/>
		<stop  offset="0.207" style="stop-color:#E5306E"/>
		<stop  offset="0.3802" style="stop-color:#DB2E6C"/>
		<stop  offset="0.5411" style="stop-color:#CB2B69"/>
		<stop  offset="0.6948" style="stop-color:#B62664"/>
		<stop  offset="0.8431" style="stop-color:#9B205F"/>
		<stop  offset="0.9858" style="stop-color:#7C1A58"/>
		<stop  offset="1" style="stop-color:#791957"/>
	</linearGradient>
	<path style="fill:url(#SVGID_00000040569605022967416530000009269006579265317536_);" d="M105.1,117.92
		c5.07-8.78,4.53-19.27-0.5-27.3l0,0l-1.56-2.66l-66.42,0.41l0,0c-9.48,0.34-18.82-4.43-23.89-13.22c-2.37-4.1-3.51-8.58-3.54-13
		c-1.63,13.05,0.81,26.73,7.9,39c15.97,27.67,49.89,38.5,78.56,26.31C99.45,125.22,102.74,122.01,105.1,117.92z"/>
	
		<linearGradient id="SVGID_00000112610333243094834620000004493390586991366063_" gradientUnits="userSpaceOnUse" x1="108.7916" y1="113.0668" x2="39.2629" y2="113.7211">
		<stop  offset="0" style="stop-color:#791957"/>
		<stop  offset="0.0142" style="stop-color:#7C1A58"/>
		<stop  offset="0.1569" style="stop-color:#9B205F"/>
		<stop  offset="0.3052" style="stop-color:#B62664"/>
		<stop  offset="0.4589" style="stop-color:#CB2B69"/>
		<stop  offset="0.6198" style="stop-color:#DB2E6C"/>
		<stop  offset="0.793" style="stop-color:#E5306E"/>
		<stop  offset="1" style="stop-color:#E8316E"/>
	</linearGradient>
	<path style="fill:url(#SVGID_00000112610333243094834620000004493390586991366063_);" d="M19.29,104.66
		c0.38,0.56,0.75,1.13,1.15,1.68c0.24,0.34,0.49,0.66,0.74,0.99c0.36,0.48,0.72,0.97,1.1,1.44c0.27,0.34,0.55,0.68,0.83,1.01
		c0.36,0.44,0.73,0.88,1.1,1.3c0.3,0.34,0.6,0.67,0.91,1.01c0.37,0.4,0.74,0.8,1.11,1.2c0.32,0.33,0.65,0.66,0.98,0.99
		c0.37,0.37,0.75,0.74,1.13,1.1c0.34,0.32,0.69,0.64,1.04,0.96c0.38,0.34,0.76,0.68,1.15,1.01c0.37,0.31,0.73,0.62,1.1,0.93
		c0.38,0.31,0.77,0.62,1.16,0.92c0.39,0.3,0.78,0.61,1.17,0.9c0.38,0.28,0.76,0.55,1.15,0.82c0.42,0.29,0.83,0.59,1.26,0.88
		c0.36,0.24,0.74,0.48,1.1,0.71c0.45,0.29,0.91,0.59,1.37,0.86c0.32,0.2,0.65,0.38,0.98,0.57c0.52,0.3,1.03,0.61,1.56,0.89
		c0.16,0.09,0.32,0.17,0.49,0.25c2.26,1.2,4.58,2.26,6.96,3.17c0.06,0.02,0.12,0.05,0.19,0.07c0.72,0.27,1.45,0.53,2.19,0.78
		c0.17,0.06,0.33,0.12,0.5,0.17c0.71,0.23,1.42,0.45,2.13,0.65c0.19,0.06,0.39,0.12,0.58,0.17c0.71,0.2,1.43,0.38,2.15,0.55
		c0.2,0.05,0.39,0.1,0.59,0.14c0.73,0.17,1.46,0.32,2.19,0.46c0.19,0.04,0.37,0.07,0.56,0.11c0.75,0.14,1.5,0.26,2.26,0.37
		c0.16,0.02,0.33,0.05,0.49,0.07c0.78,0.11,1.57,0.21,2.36,0.29c0.12,0.01,0.25,0.02,0.37,0.04c0.83,0.08,1.66,0.14,2.5,0.19
		c0.06,0,0.13,0.01,0.19,0.01c9.24,0.48,18.66-1.08,27.58-4.87c3.79-2.24,7.08-5.45,9.44-9.54c1.62-2.81,2.66-5.79,3.17-8.81
		l-65.98,0.41l0,0c-9.46,0.34-23.23-5.8-28.33-14.56c0,0,0,0,0,0c0.42,0.97,0.88,1.93,1.35,2.88c0.07,0.13,0.13,0.26,0.2,0.39
		c0.5,0.98,1.02,1.95,1.57,2.92c0.52,0.9,1.06,1.78,1.62,2.65C18.9,104.09,19.1,104.37,19.29,104.66z"/>
</g>
<g>
	<text transform="matrix(1 0 0 1 429.5371 155.9674)" class="st6" style="font-family:'Montserrat-Regular'; font-size:14.7723px;"> Innovación Total con Inteligencia Artificial</text>
</g>
<g>
	<text transform="matrix(1 0 0 1 -79.162 209.7972)" class="st6" style="font-family:'Montserrat-Regular'; font-size:13.5704px;"> Innovación Total con Inteligencia Artificial</text>
</g>
<text transform="matrix(1 0 0 1 153.7054 193.7944)" class="st7" style="fill:#E7296E; font-size:78.7048px; letter-spacing:-3;">IA</text>
</svg>
