<?xml version="1.0" encoding="utf-8"?>
<!-- Generator: Adobe Illustrator 26.0.0, SVG Export Plug-In . SVG Version: 6.00 Build 0)  -->
<svg version="1.1" id="Capa_1" xmlns="http://www.w3.org/2000/svg" xmlns:xlink="http://www.w3.org/1999/xlink" x="0px" y="0px"
	 viewBox="0 0 572.91 106.91" style="enable-background:new 0 0 572.91 106.91;" xml:space="preserve">
<style type="text/css">
	.st0{fill:#FFFFFF;}
	.st1{font-family:'Objective-Bold';}
	.st2{font-size:82.8372px;}
	.st3{letter-spacing:-3;}
	.st4{fill:#E7296E;}
	.st5{fill:url(#SVGID_1_);}
	.st6{fill:url(#SVGID_00000089571094119604348090000010468810859591252609_);}
	.st7{fill:url(#SVGID_00000031905175914333220750000006997842629340737922_);}
	.st8{fill:url(#SVGID_00000026857876499080955270000000441996639101704336_);}
	.st9{fill:url(#SVGID_00000098935910445338003100000015051942749711094169_);}
	.st10{fill:url(#SVGID_00000173881872283640716850000014449157164932458892_);}
	.st11{fill:url(#SVGID_00000124153114729220519330000002285419174231840942_);}
	.st12{fill:url(#SVGID_00000019657184550042111870000002549228787786631866_);}
	.st13{fill:url(#SVGID_00000181077369207638090880000009257952506299201449_);}
	.st14{fill:url(#SVGID_00000183208837931609418700000000162895441019239320_);}
	.st15{fill:url(#SVGID_00000039852093946342908140000000596742351303124120_);}
	.st16{fill:url(#SVGID_00000157999575118997760310000014634098319703321005_);}
	.st17{font-family:'Montserrat-Regular';}
	.st18{font-size:14.7723px;}
</style>
<text transform="matrix(1 0 0 1 0 81.3124)"><tspan x="0" y="0" class="st0 st1 st2 st3">Consultor</tspan><tspan x="384.44" y="0" class="st4 st1 st2 st3">IA</tspan></text>
<g>
	<linearGradient id="SVGID_1_" gradientUnits="userSpaceOnUse" x1="524.8795" y1="36.8642" x2="558.0613" y2="86.2747">
		<stop  offset="0" style="stop-color:#791957"/>
		<stop  offset="0.181" style="stop-color:#941F5D"/>
		<stop  offset="0.4333" style="stop-color:#B72665"/>
		<stop  offset="0.6627" style="stop-color:#D12C6A"/>
		<stop  offset="0.8593" style="stop-color:#E22F6D"/>
		<stop  offset="1" style="stop-color:#E8316E"/>
	</linearGradient>
	<path class="st5" d="M552.42,75.24c11.47-19.87,4.67-45.29-15.21-56.76c-3.61-2.08-7.4-3.56-11.25-4.46l-10.39,14.94l23.01,39.29
		l0,0c3.34,5.34,3.7,12.3,0.33,18.14c-1.57,2.73-3.77,4.87-6.3,6.35C540.66,89.34,547.71,83.39,552.42,75.24z"/>
	
		<linearGradient id="SVGID_00000049196390143186365840000005484723284204770211_" gradientUnits="userSpaceOnUse" x1="525.7171" y1="18.4152" x2="556.7491" y2="64.6244">
		<stop  offset="0" style="stop-color:#791957"/>
		<stop  offset="0.181" style="stop-color:#941F5D"/>
		<stop  offset="0.4333" style="stop-color:#B72665"/>
		<stop  offset="0.6627" style="stop-color:#D12C6A"/>
		<stop  offset="0.8593" style="stop-color:#E22F6D"/>
		<stop  offset="1" style="stop-color:#E8316E"/>
	</linearGradient>
	<path style="fill:url(#SVGID_00000049196390143186365840000005484723284204770211_);" d="M537.21,18.48
		c-2.78-1.61-5.67-2.84-8.62-3.75l-2.74,3.94l23.01,39.29l0,0c3.34,5.33,4.38,15.29,1.03,21.13c0.9-1.22,1.75-2.5,2.52-3.85
		C563.89,55.36,557.08,29.95,537.21,18.48z"/>
	
		<linearGradient id="SVGID_00000062890076730099828570000004084957323572119692_" gradientUnits="userSpaceOnUse" x1="491.4121" y1="65.0525" x2="521.5511" y2="7.0929">
		<stop  offset="0" style="stop-color:#791957"/>
		<stop  offset="0.0447" style="stop-color:#7E1A58"/>
		<stop  offset="1" style="stop-color:#E8316E"/>
	</linearGradient>
	<path style="fill:url(#SVGID_00000062890076730099828570000004084957323572119692_);" d="M516.43,12.91
		c-22.95,0-41.55,18.6-41.55,41.55c0,4.17,0.62,8.18,1.76,11.98l18.13,1.52l22.52-39.57l0,0c2.95-5.56,8.8-9.36,15.54-9.36
		c3.15,0,6.1,0.83,8.65,2.28C534.52,16.04,525.84,12.91,516.43,12.91z"/>
	
		<linearGradient id="SVGID_00000152262427823263926790000001585803866280096444_" gradientUnits="userSpaceOnUse" x1="1459.7415" y1="1397.0372" x2="1490.774" y2="1443.2473" gradientTransform="matrix(-0.5 -0.866 0.866 -0.5 0.6054 2027.0967)">
		<stop  offset="0" style="stop-color:#791957"/>
		<stop  offset="0.181" style="stop-color:#941F5D"/>
		<stop  offset="0.4333" style="stop-color:#B72665"/>
		<stop  offset="0.6627" style="stop-color:#D12C6A"/>
		<stop  offset="0.8593" style="stop-color:#E22F6D"/>
		<stop  offset="1" style="stop-color:#E8316E"/>
	</linearGradient>
	<path style="fill:url(#SVGID_00000152262427823263926790000001585803866280096444_);" d="M474.88,54.46c0,3.21,0.37,6.33,1.06,9.33
		l4.78,0.4l22.52-39.57l0,0c2.95-5.55,11.05-11.44,17.79-11.46c-1.51-0.17-3.04-0.26-4.6-0.26
		C493.48,12.91,474.88,31.51,474.88,54.46z"/>
	
		<linearGradient id="SVGID_00000030448403756898090510000004645241474462559386_" gradientUnits="userSpaceOnUse" x1="468.0174" y1="72.6715" x2="534.4071" y2="72.6715">
		<stop  offset="0" style="stop-color:#E8316E"/>
		<stop  offset="0.207" style="stop-color:#E5306E"/>
		<stop  offset="0.3802" style="stop-color:#DB2E6C"/>
		<stop  offset="0.5411" style="stop-color:#CB2B69"/>
		<stop  offset="0.6948" style="stop-color:#B62664"/>
		<stop  offset="0.8431" style="stop-color:#9B205F"/>
		<stop  offset="0.9858" style="stop-color:#7C1A58"/>
		<stop  offset="1" style="stop-color:#791957"/>
	</linearGradient>
	<path style="fill:url(#SVGID_00000030448403756898090510000004645241474462559386_);" d="M538.91,86.38
		c3.37-5.84,3.01-12.8-0.33-18.14l0,0l-1.03-1.77l-44.12,0.27l0,0c-6.3,0.22-12.5-2.95-15.87-8.78c-1.57-2.73-2.33-5.7-2.35-8.64
		c-1.09,8.67,0.54,17.76,5.25,25.91c10.61,18.38,33.14,25.57,52.19,17.48C535.15,91.23,537.34,89.1,538.91,86.38z"/>
	
		<linearGradient id="SVGID_00000062190750018216091920000008650233587588771202_" gradientUnits="userSpaceOnUse" x1="541.3555" y1="83.1565" x2="495.1691" y2="83.5911">
		<stop  offset="0" style="stop-color:#791957"/>
		<stop  offset="0.0142" style="stop-color:#7C1A58"/>
		<stop  offset="0.1569" style="stop-color:#9B205F"/>
		<stop  offset="0.3052" style="stop-color:#B62664"/>
		<stop  offset="0.4589" style="stop-color:#CB2B69"/>
		<stop  offset="0.6198" style="stop-color:#DB2E6C"/>
		<stop  offset="0.793" style="stop-color:#E5306E"/>
		<stop  offset="1" style="stop-color:#E8316E"/>
	</linearGradient>
	<path style="fill:url(#SVGID_00000062190750018216091920000008650233587588771202_);" d="M481.9,77.57
		c0.25,0.38,0.5,0.75,0.76,1.12c0.16,0.22,0.33,0.44,0.49,0.66c0.24,0.32,0.48,0.64,0.73,0.96c0.18,0.23,0.37,0.45,0.55,0.67
		c0.24,0.29,0.48,0.58,0.73,0.87c0.2,0.23,0.4,0.45,0.6,0.67c0.24,0.27,0.49,0.53,0.74,0.79c0.21,0.22,0.43,0.44,0.65,0.66
		c0.25,0.25,0.5,0.49,0.75,0.73c0.23,0.22,0.46,0.43,0.69,0.64c0.25,0.23,0.51,0.45,0.76,0.67c0.24,0.21,0.49,0.41,0.73,0.62
		c0.25,0.21,0.51,0.41,0.77,0.61c0.26,0.2,0.52,0.4,0.78,0.6c0.25,0.19,0.51,0.37,0.76,0.55c0.28,0.2,0.55,0.39,0.84,0.58
		c0.24,0.16,0.49,0.32,0.73,0.47c0.3,0.19,0.6,0.39,0.91,0.57c0.21,0.13,0.43,0.25,0.65,0.38c0.34,0.2,0.69,0.4,1.04,0.59
		c0.11,0.06,0.22,0.11,0.32,0.17c1.5,0.8,3.05,1.5,4.63,2.11c0.04,0.02,0.08,0.03,0.12,0.05c0.48,0.18,0.97,0.35,1.45,0.52
		c0.11,0.04,0.22,0.08,0.33,0.12c0.47,0.15,0.94,0.3,1.42,0.43c0.13,0.04,0.26,0.08,0.39,0.11c0.47,0.13,0.95,0.25,1.43,0.37
		c0.13,0.03,0.26,0.06,0.39,0.1c0.48,0.11,0.97,0.21,1.45,0.31c0.12,0.02,0.25,0.05,0.37,0.07c0.5,0.09,1,0.18,1.5,0.25
		c0.11,0.02,0.22,0.03,0.33,0.05c0.52,0.07,1.04,0.14,1.57,0.19c0.08,0.01,0.16,0.02,0.25,0.02c0.55,0.05,1.1,0.1,1.66,0.13
		c0.04,0,0.08,0,0.13,0.01c6.14,0.32,12.4-0.72,18.32-3.24c2.52-1.49,4.71-3.62,6.27-6.33c1.08-1.87,1.77-3.85,2.11-5.85
		l-43.83,0.27l0,0c-6.28,0.22-15.43-3.85-18.82-9.67c0,0,0,0,0,0c0.28,0.64,0.58,1.28,0.9,1.91c0.04,0.09,0.09,0.17,0.13,0.26
		c0.33,0.65,0.67,1.3,1.04,1.94c0.35,0.6,0.71,1.18,1.08,1.76C481.64,77.19,481.78,77.38,481.9,77.57z"/>
</g>
<text transform="matrix(1 0 0 1 -359.7197 134.4286)" class="st0" style="font-family:'Causten-Bold'; font-size:61.8248px; letter-spacing:-2;">Consultor</text>
<g>
	
		<linearGradient id="SVGID_00000020370845059547227060000015705992077080544177_" gradientUnits="userSpaceOnUse" x1="-188.3236" y1="-15.1218" x2="-138.372" y2="59.2603">
		<stop  offset="0" style="stop-color:#791957"/>
		<stop  offset="0.181" style="stop-color:#941F5D"/>
		<stop  offset="0.4333" style="stop-color:#B72665"/>
		<stop  offset="0.6627" style="stop-color:#D12C6A"/>
		<stop  offset="0.8593" style="stop-color:#E22F6D"/>
		<stop  offset="1" style="stop-color:#E8316E"/>
	</linearGradient>
	<path style="fill:url(#SVGID_00000020370845059547227060000015705992077080544177_);" d="M-146.87,42.65
		c17.27-29.92,7.02-68.18-22.9-85.45c-5.43-3.14-11.14-5.35-16.94-6.72l-15.64,22.49l34.64,59.15l0,0c5.03,8.04,5.57,18.52,0.5,27.3
		c-2.37,4.1-5.68,7.32-9.49,9.56C-164.57,63.88-153.96,54.92-146.87,42.65z"/>
	
		<linearGradient id="SVGID_00000034805172678114015360000010016504190837634486_" gradientUnits="userSpaceOnUse" x1="-187.0627" y1="-42.8947" x2="-140.3474" y2="26.6682">
		<stop  offset="0" style="stop-color:#791957"/>
		<stop  offset="0.181" style="stop-color:#941F5D"/>
		<stop  offset="0.4333" style="stop-color:#B72665"/>
		<stop  offset="0.6627" style="stop-color:#D12C6A"/>
		<stop  offset="0.8593" style="stop-color:#E22F6D"/>
		<stop  offset="1" style="stop-color:#E8316E"/>
	</linearGradient>
	<path style="fill:url(#SVGID_00000034805172678114015360000010016504190837634486_);" d="M-169.77-42.8
		c-4.19-2.42-8.54-4.28-12.97-5.64l-4.12,5.93l34.64,59.15l0,0c5.02,8.02,6.59,23.02,1.55,31.81c1.35-1.84,2.63-3.77,3.8-5.8
		C-129.6,12.73-139.85-25.53-169.77-42.8z"/>
	
		<linearGradient id="SVGID_00000094585496931450864980000006469369614274705280_" gradientUnits="userSpaceOnUse" x1="-238.705" y1="27.3126" x2="-193.3342" y2="-59.9391">
		<stop  offset="0" style="stop-color:#791957"/>
		<stop  offset="0.0447" style="stop-color:#7E1A58"/>
		<stop  offset="1" style="stop-color:#E8316E"/>
	</linearGradient>
	<path style="fill:url(#SVGID_00000094585496931450864980000006469369614274705280_);" d="M-201.04-51.19
		c-34.55,0-62.55,28.01-62.55,62.55c0,6.27,0.93,12.32,2.65,18.03l27.3,2.29l33.9-59.57l0.01,0c4.45-8.38,13.25-14.08,23.4-14.08
		c4.74,0,9.18,1.25,13.03,3.44C-173.81-46.47-186.87-51.19-201.04-51.19z"/>
	
		<linearGradient id="SVGID_00000007406353779921006180000010289594319836934305_" gradientUnits="userSpaceOnUse" x1="1860.5076" y1="779.0071" x2="1907.2236" y2="848.5713" gradientTransform="matrix(-0.5 -0.866 0.866 -0.5 0.6054 2027.0967)">
		<stop  offset="0" style="stop-color:#791957"/>
		<stop  offset="0.181" style="stop-color:#941F5D"/>
		<stop  offset="0.4333" style="stop-color:#B72665"/>
		<stop  offset="0.6627" style="stop-color:#D12C6A"/>
		<stop  offset="0.8593" style="stop-color:#E22F6D"/>
		<stop  offset="1" style="stop-color:#E8316E"/>
	</linearGradient>
	<path style="fill:url(#SVGID_00000007406353779921006180000010289594319836934305_);" d="M-263.6,11.37c0,4.83,0.56,9.53,1.6,14.05
		l7.19,0.6l33.9-59.57l0.01,0c4.44-8.36,16.64-17.22,26.77-17.25c-2.27-0.25-4.58-0.39-6.92-0.39
		C-235.59-51.19-263.6-23.18-263.6,11.37z"/>
	
		<linearGradient id="SVGID_00000107557631723237914810000012071808181319182768_" gradientUnits="userSpaceOnUse" x1="-273.9232" y1="38.7823" x2="-173.9808" y2="38.7823">
		<stop  offset="0" style="stop-color:#E8316E"/>
		<stop  offset="0.207" style="stop-color:#E5306E"/>
		<stop  offset="0.3802" style="stop-color:#DB2E6C"/>
		<stop  offset="0.5411" style="stop-color:#CB2B69"/>
		<stop  offset="0.6948" style="stop-color:#B62664"/>
		<stop  offset="0.8431" style="stop-color:#9B205F"/>
		<stop  offset="0.9858" style="stop-color:#7C1A58"/>
		<stop  offset="1" style="stop-color:#791957"/>
	</linearGradient>
	<path style="fill:url(#SVGID_00000107557631723237914810000012071808181319182768_);" d="M-167.21,59.42
		c5.07-8.78,4.53-19.27-0.5-27.3l0,0l-1.56-2.66l-66.42,0.41l0,0c-9.48,0.34-18.82-4.43-23.89-13.22c-2.37-4.1-3.51-8.58-3.54-13
		c-1.63,13.05,0.81,26.73,7.9,39c15.97,27.67,49.89,38.5,78.56,26.31C-172.86,66.72-169.57,63.51-167.21,59.42z"/>
	
		<linearGradient id="SVGID_00000144307711890848765620000001410870184112858292_" gradientUnits="userSpaceOnUse" x1="-163.5207" y1="54.5662" x2="-233.0493" y2="55.2205">
		<stop  offset="0" style="stop-color:#791957"/>
		<stop  offset="0.0142" style="stop-color:#7C1A58"/>
		<stop  offset="0.1569" style="stop-color:#9B205F"/>
		<stop  offset="0.3052" style="stop-color:#B62664"/>
		<stop  offset="0.4589" style="stop-color:#CB2B69"/>
		<stop  offset="0.6198" style="stop-color:#DB2E6C"/>
		<stop  offset="0.793" style="stop-color:#E5306E"/>
		<stop  offset="1" style="stop-color:#E8316E"/>
	</linearGradient>
	<path style="fill:url(#SVGID_00000144307711890848765620000001410870184112858292_);" d="M-253.02,46.16
		c0.38,0.56,0.75,1.13,1.15,1.68c0.24,0.34,0.49,0.66,0.74,0.99c0.36,0.48,0.72,0.97,1.1,1.44c0.27,0.34,0.55,0.68,0.83,1.01
		c0.36,0.44,0.73,0.88,1.1,1.3c0.3,0.34,0.6,0.67,0.91,1.01c0.37,0.4,0.74,0.8,1.11,1.2c0.32,0.33,0.65,0.66,0.98,0.99
		c0.37,0.37,0.75,0.74,1.13,1.1c0.34,0.32,0.69,0.64,1.04,0.96c0.38,0.34,0.76,0.68,1.15,1.01c0.37,0.31,0.73,0.62,1.1,0.93
		c0.38,0.31,0.77,0.62,1.16,0.92c0.39,0.3,0.78,0.61,1.17,0.9c0.38,0.28,0.76,0.55,1.15,0.82c0.42,0.29,0.83,0.59,1.26,0.88
		c0.36,0.24,0.74,0.48,1.1,0.71c0.45,0.29,0.91,0.59,1.37,0.86c0.32,0.2,0.65,0.38,0.98,0.57c0.52,0.3,1.03,0.61,1.56,0.89
		c0.16,0.09,0.32,0.17,0.49,0.25c2.26,1.2,4.58,2.26,6.96,3.17c0.06,0.02,0.12,0.05,0.19,0.07c0.72,0.27,1.45,0.53,2.19,0.78
		c0.17,0.06,0.33,0.12,0.5,0.17c0.71,0.23,1.42,0.45,2.13,0.65c0.19,0.06,0.39,0.12,0.58,0.17c0.71,0.2,1.43,0.38,2.15,0.55
		c0.2,0.05,0.39,0.1,0.59,0.14c0.73,0.17,1.46,0.32,2.19,0.46c0.19,0.04,0.37,0.07,0.56,0.11c0.75,0.14,1.5,0.26,2.26,0.37
		c0.16,0.02,0.33,0.05,0.49,0.07c0.78,0.11,1.57,0.21,2.36,0.29c0.12,0.01,0.25,0.02,0.37,0.04c0.83,0.08,1.66,0.14,2.5,0.19
		c0.06,0,0.13,0.01,0.19,0.01c9.24,0.48,18.66-1.08,27.58-4.87c3.79-2.24,7.08-5.45,9.44-9.54c1.62-2.81,2.66-5.79,3.17-8.81
		l-65.98,0.41l0,0c-9.46,0.34-23.23-5.8-28.33-14.56c0,0,0,0,0,0c0.42,0.97,0.88,1.93,1.35,2.88c0.07,0.13,0.13,0.26,0.2,0.39
		c0.5,0.98,1.02,1.95,1.57,2.92c0.52,0.9,1.06,1.78,1.62,2.65C-253.41,45.59-253.21,45.87-253.02,46.16z"/>
</g>
<g>
	<text transform="matrix(1 0 0 1 157.2249 97.4668)" class="st0 st17 st18"> Innovación Total con Inteligencia Artificial</text>
</g>
<g>
	<text transform="matrix(1 0 0 1 -351.4743 151.2966)" class="st0 st17" style="font-size:13.5704px;"> Innovación Total con Inteligencia Artificial</text>
</g>
<text transform="matrix(1 0 0 1 -118.6068 135.2938)" class="st4 st3" style="font-family:'Causten-Bold'; font-size:78.7048px;">IA</text>
</svg>
