<?xml version="1.0" encoding="utf-8"?>
<!-- Generator: Adobe Illustrator 26.0.0, SVG Export Plug-In . SVG Version: 6.00 Build 0)  -->
<svg version="1.1" id="Capa_1" xmlns="http://www.w3.org/2000/svg" xmlns:xlink="http://www.w3.org/1999/xlink" x="0px" y="0px"
	 viewBox="0 0 313.44 222.79" style="enable-background:new 0 0 313.44 222.79;" xml:space="preserve">
<style type="text/css">
	.st0{fill:url(#SVGID_1_);}
	.st1{fill:url(#SVGID_00000166637135495713606070000017750536473152725888_);}
	.st2{fill:url(#SVGID_00000124871270226661913800000015272791902541112208_);}
	.st3{fill:url(#SVGID_00000067919686244475050890000005288088964419971500_);}
	.st4{fill:url(#SVGID_00000181776877995394584400000010551517232975687565_);}
	.st5{fill:url(#SVGID_00000114792302864915723300000005803735625381761932_);}
	.st6{fill:#FFFFFF;}
	.st7{font-family:'Causten-Bold';}
	.st8{font-size:61.8248px;}
	.st9{letter-spacing:-2;}
	.st10{fill:url(#SVGID_00000022537136182260946910000011458625623332845242_);}
	.st11{fill:url(#SVGID_00000129920808630358820470000013205703137387975322_);}
	.st12{fill:url(#SVGID_00000119807023487511715570000003763245863570280880_);}
	.st13{fill:url(#SVGID_00000153665212413277747360000004263049923224278946_);}
	.st14{fill:url(#SVGID_00000044877726145943476230000007412165009193156256_);}
	.st15{fill:url(#SVGID_00000026129608418998324560000007578995493378921868_);}
	.st16{font-family:'Montserrat-Regular';}
	.st17{font-size:13.5704px;}
	.st18{fill:#E7296E;}
	.st19{font-size:78.7048px;}
	.st20{letter-spacing:-3;}
</style>
<text transform="matrix(1 0 0 1 361.5331 139.813)"><tspan x="0" y="0" class="st6 st20" style="font-family:'Objective-Bold'; font-size:82.8372px;">Consultor</tspan><tspan x="384.44" y="0" class="st18 st20" style="font-family:'Objective-Bold'; font-size:82.8372px;">IA</tspan></text>
<g>
	<linearGradient id="SVGID_1_" gradientUnits="userSpaceOnUse" x1="886.4125" y1="95.3648" x2="919.5944" y2="144.7753">
		<stop  offset="0" style="stop-color:#791957"/>
		<stop  offset="0.181" style="stop-color:#941F5D"/>
		<stop  offset="0.4333" style="stop-color:#B72665"/>
		<stop  offset="0.6627" style="stop-color:#D12C6A"/>
		<stop  offset="0.8593" style="stop-color:#E22F6D"/>
		<stop  offset="1" style="stop-color:#E8316E"/>
	</linearGradient>
	<path class="st0" d="M913.95,133.74c11.47-19.87,4.67-45.29-15.21-56.76c-3.61-2.08-7.4-3.56-11.25-4.46L877.1,87.45l23.01,39.29
		l0,0c3.34,5.34,3.7,12.3,0.33,18.14c-1.57,2.73-3.77,4.87-6.3,6.35C902.19,147.84,909.24,141.89,913.95,133.74z"/>
	
		<linearGradient id="SVGID_00000024692283146855621630000005234890942294304141_" gradientUnits="userSpaceOnUse" x1="887.2502" y1="76.9157" x2="918.2822" y2="123.125">
		<stop  offset="0" style="stop-color:#791957"/>
		<stop  offset="0.181" style="stop-color:#941F5D"/>
		<stop  offset="0.4333" style="stop-color:#B72665"/>
		<stop  offset="0.6627" style="stop-color:#D12C6A"/>
		<stop  offset="0.8593" style="stop-color:#E22F6D"/>
		<stop  offset="1" style="stop-color:#E8316E"/>
	</linearGradient>
	<path style="fill:url(#SVGID_00000024692283146855621630000005234890942294304141_);" d="M898.74,76.98
		c-2.78-1.61-5.67-2.84-8.62-3.75l-2.74,3.94l23.01,39.29l0,0c3.34,5.33,4.38,15.29,1.03,21.13c0.9-1.22,1.75-2.5,2.52-3.85
		C925.42,113.86,918.61,88.45,898.74,76.98z"/>
	
		<linearGradient id="SVGID_00000152258975475338182150000004324646769088896701_" gradientUnits="userSpaceOnUse" x1="852.9452" y1="123.5531" x2="883.0842" y2="65.5935">
		<stop  offset="0" style="stop-color:#791957"/>
		<stop  offset="0.0447" style="stop-color:#7E1A58"/>
		<stop  offset="1" style="stop-color:#E8316E"/>
	</linearGradient>
	<path style="fill:url(#SVGID_00000152258975475338182150000004324646769088896701_);" d="M877.96,71.41
		c-22.95,0-41.55,18.6-41.55,41.55c0,4.17,0.62,8.18,1.76,11.98l18.13,1.52l22.52-39.57l0,0c2.95-5.56,8.8-9.36,15.54-9.36
		c3.15,0,6.1,0.83,8.65,2.28C896.06,74.54,887.38,71.41,877.96,71.41z"/>
	
		<linearGradient id="SVGID_00000124141059524325637970000006728217737114222978_" gradientUnits="userSpaceOnUse" x1="1821.2745" y1="1455.5378" x2="1852.3071" y2="1501.7479" gradientTransform="matrix(-0.5 -0.866 0.866 -0.5 492.2435 2427.9353)">
		<stop  offset="0" style="stop-color:#791957"/>
		<stop  offset="0.181" style="stop-color:#941F5D"/>
		<stop  offset="0.4333" style="stop-color:#B72665"/>
		<stop  offset="0.6627" style="stop-color:#D12C6A"/>
		<stop  offset="0.8593" style="stop-color:#E22F6D"/>
		<stop  offset="1" style="stop-color:#E8316E"/>
	</linearGradient>
	<path style="fill:url(#SVGID_00000124141059524325637970000006728217737114222978_);" d="M836.41,112.96
		c0,3.21,0.37,6.33,1.06,9.33l4.78,0.4l22.52-39.57l0,0c2.95-5.55,11.05-11.44,17.79-11.46c-1.51-0.17-3.04-0.26-4.6-0.26
		C855.01,71.41,836.41,90.01,836.41,112.96z"/>
	
		<linearGradient id="SVGID_00000155826499000989234260000004837093737901498789_" gradientUnits="userSpaceOnUse" x1="829.5504" y1="131.1721" x2="895.9402" y2="131.1721">
		<stop  offset="0" style="stop-color:#E8316E"/>
		<stop  offset="0.207" style="stop-color:#E5306E"/>
		<stop  offset="0.3802" style="stop-color:#DB2E6C"/>
		<stop  offset="0.5411" style="stop-color:#CB2B69"/>
		<stop  offset="0.6948" style="stop-color:#B62664"/>
		<stop  offset="0.8431" style="stop-color:#9B205F"/>
		<stop  offset="0.9858" style="stop-color:#7C1A58"/>
		<stop  offset="1" style="stop-color:#791957"/>
	</linearGradient>
	<path style="fill:url(#SVGID_00000155826499000989234260000004837093737901498789_);" d="M900.44,144.88
		c3.37-5.84,3.01-12.8-0.33-18.14l0,0l-1.03-1.77l-44.12,0.27l0,0c-6.3,0.22-12.5-2.95-15.87-8.78c-1.57-2.73-2.33-5.7-2.35-8.64
		c-1.09,8.67,0.54,17.76,5.25,25.91c10.61,18.38,33.14,25.57,52.19,17.48C896.69,149.73,898.87,147.6,900.44,144.88z"/>
	
		<linearGradient id="SVGID_00000036214544792444537630000016557569130766561944_" gradientUnits="userSpaceOnUse" x1="902.8886" y1="141.6571" x2="856.7021" y2="142.0917">
		<stop  offset="0" style="stop-color:#791957"/>
		<stop  offset="0.0142" style="stop-color:#7C1A58"/>
		<stop  offset="0.1569" style="stop-color:#9B205F"/>
		<stop  offset="0.3052" style="stop-color:#B62664"/>
		<stop  offset="0.4589" style="stop-color:#CB2B69"/>
		<stop  offset="0.6198" style="stop-color:#DB2E6C"/>
		<stop  offset="0.793" style="stop-color:#E5306E"/>
		<stop  offset="1" style="stop-color:#E8316E"/>
	</linearGradient>
	<path style="fill:url(#SVGID_00000036214544792444537630000016557569130766561944_);" d="M843.44,136.07
		c0.25,0.38,0.5,0.75,0.76,1.12c0.16,0.22,0.33,0.44,0.49,0.66c0.24,0.32,0.48,0.64,0.73,0.96c0.18,0.23,0.37,0.45,0.55,0.67
		c0.24,0.29,0.48,0.58,0.73,0.87c0.2,0.23,0.4,0.45,0.6,0.67c0.24,0.27,0.49,0.53,0.74,0.79c0.21,0.22,0.43,0.44,0.65,0.66
		c0.25,0.25,0.5,0.49,0.75,0.73c0.23,0.22,0.46,0.43,0.69,0.64c0.25,0.23,0.51,0.45,0.76,0.67c0.24,0.21,0.49,0.41,0.73,0.62
		c0.25,0.21,0.51,0.41,0.77,0.61c0.26,0.2,0.52,0.4,0.78,0.6c0.25,0.19,0.51,0.37,0.76,0.55c0.28,0.2,0.55,0.39,0.84,0.58
		c0.24,0.16,0.49,0.32,0.73,0.47c0.3,0.19,0.6,0.39,0.91,0.57c0.21,0.13,0.43,0.25,0.65,0.38c0.34,0.2,0.69,0.4,1.04,0.59
		c0.11,0.06,0.22,0.11,0.32,0.17c1.5,0.8,3.05,1.5,4.63,2.11c0.04,0.02,0.08,0.03,0.12,0.05c0.48,0.18,0.97,0.35,1.45,0.52
		c0.11,0.04,0.22,0.08,0.33,0.12c0.47,0.15,0.94,0.3,1.42,0.43c0.13,0.04,0.26,0.08,0.39,0.11c0.47,0.13,0.95,0.25,1.43,0.37
		c0.13,0.03,0.26,0.06,0.39,0.1c0.48,0.11,0.97,0.21,1.45,0.31c0.12,0.02,0.25,0.05,0.37,0.07c0.5,0.09,1,0.18,1.5,0.25
		c0.11,0.02,0.22,0.03,0.33,0.05c0.52,0.07,1.04,0.14,1.57,0.19c0.08,0.01,0.16,0.02,0.25,0.02c0.55,0.05,1.1,0.1,1.66,0.13
		c0.04,0,0.08,0,0.13,0.01c6.14,0.32,12.4-0.72,18.32-3.24c2.52-1.49,4.71-3.62,6.27-6.33c1.08-1.87,1.77-3.85,2.11-5.85
		l-43.83,0.27l0,0c-6.28,0.22-15.43-3.85-18.82-9.67c0,0,0,0,0,0c0.28,0.64,0.58,1.28,0.9,1.91c0.04,0.09,0.09,0.17,0.13,0.26
		c0.33,0.65,0.67,1.3,1.04,1.94c0.35,0.6,0.71,1.18,1.08,1.76C843.18,135.69,843.31,135.88,843.44,136.07z"/>
</g>
<text transform="matrix(1 0 0 1 1.8134 192.9292)" class="st6 st7 st8 st9">Consultor</text>
<g>
	
		<linearGradient id="SVGID_00000003063716917175625480000002929830557559172013_" gradientUnits="userSpaceOnUse" x1="173.2095" y1="43.3788" x2="223.1611" y2="117.7609">
		<stop  offset="0" style="stop-color:#791957"/>
		<stop  offset="0.181" style="stop-color:#941F5D"/>
		<stop  offset="0.4333" style="stop-color:#B72665"/>
		<stop  offset="0.6627" style="stop-color:#D12C6A"/>
		<stop  offset="0.8593" style="stop-color:#E22F6D"/>
		<stop  offset="1" style="stop-color:#E8316E"/>
	</linearGradient>
	<path style="fill:url(#SVGID_00000003063716917175625480000002929830557559172013_);" d="M214.66,101.15
		c17.27-29.92,7.02-68.18-22.9-85.45c-5.43-3.14-11.14-5.35-16.94-6.72l-15.64,22.49l34.64,59.15l0,0c5.03,8.04,5.57,18.52,0.5,27.3
		c-2.37,4.1-5.68,7.32-9.49,9.56C196.96,122.38,207.58,113.42,214.66,101.15z"/>
	
		<linearGradient id="SVGID_00000026139134301111505530000002591187813277999002_" gradientUnits="userSpaceOnUse" x1="174.4704" y1="15.6059" x2="221.1857" y2="85.1688">
		<stop  offset="0" style="stop-color:#791957"/>
		<stop  offset="0.181" style="stop-color:#941F5D"/>
		<stop  offset="0.4333" style="stop-color:#B72665"/>
		<stop  offset="0.6627" style="stop-color:#D12C6A"/>
		<stop  offset="0.8593" style="stop-color:#E22F6D"/>
		<stop  offset="1" style="stop-color:#E8316E"/>
	</linearGradient>
	<path style="fill:url(#SVGID_00000026139134301111505530000002591187813277999002_);" d="M191.77,15.7
		c-4.19-2.42-8.54-4.28-12.97-5.64l-4.12,5.93l34.64,59.15l0,0c5.02,8.02,6.59,23.02,1.55,31.81c1.35-1.84,2.63-3.77,3.8-5.8
		C231.94,71.23,221.69,32.97,191.77,15.7z"/>
	
		<linearGradient id="SVGID_00000154396213588377404200000011938541484303415983_" gradientUnits="userSpaceOnUse" x1="122.8281" y1="85.8132" x2="168.1989" y2="-1.4385">
		<stop  offset="0" style="stop-color:#791957"/>
		<stop  offset="0.0447" style="stop-color:#7E1A58"/>
		<stop  offset="1" style="stop-color:#E8316E"/>
	</linearGradient>
	<path style="fill:url(#SVGID_00000154396213588377404200000011938541484303415983_);" d="M160.49,7.32
		c-34.55,0-62.55,28.01-62.55,62.55c0,6.27,0.93,12.32,2.65,18.03l27.3,2.29l33.9-59.57l0.01,0c4.45-8.38,13.25-14.08,23.4-14.08
		c4.74,0,9.18,1.25,13.03,3.44C187.73,12.03,174.66,7.32,160.49,7.32z"/>
	
		<linearGradient id="SVGID_00000179632672463128989670000005256379225666578336_" gradientUnits="userSpaceOnUse" x1="2222.0405" y1="837.5077" x2="2268.7568" y2="907.0719" gradientTransform="matrix(-0.5 -0.866 0.866 -0.5 492.2435 2427.9353)">
		<stop  offset="0" style="stop-color:#791957"/>
		<stop  offset="0.181" style="stop-color:#941F5D"/>
		<stop  offset="0.4333" style="stop-color:#B72665"/>
		<stop  offset="0.6627" style="stop-color:#D12C6A"/>
		<stop  offset="0.8593" style="stop-color:#E22F6D"/>
		<stop  offset="1" style="stop-color:#E8316E"/>
	</linearGradient>
	<path style="fill:url(#SVGID_00000179632672463128989670000005256379225666578336_);" d="M97.93,69.87c0,4.83,0.56,9.53,1.6,14.05
		l7.19,0.6l33.9-59.57l0.01,0c4.44-8.36,16.64-17.22,26.77-17.25c-2.27-0.25-4.58-0.39-6.92-0.39
		C125.94,7.32,97.93,35.32,97.93,69.87z"/>
	
		<linearGradient id="SVGID_00000003807749840923999740000003141650167714233747_" gradientUnits="userSpaceOnUse" x1="87.6098" y1="97.2829" x2="187.5523" y2="97.2829">
		<stop  offset="0" style="stop-color:#E8316E"/>
		<stop  offset="0.207" style="stop-color:#E5306E"/>
		<stop  offset="0.3802" style="stop-color:#DB2E6C"/>
		<stop  offset="0.5411" style="stop-color:#CB2B69"/>
		<stop  offset="0.6948" style="stop-color:#B62664"/>
		<stop  offset="0.8431" style="stop-color:#9B205F"/>
		<stop  offset="0.9858" style="stop-color:#7C1A58"/>
		<stop  offset="1" style="stop-color:#791957"/>
	</linearGradient>
	<path style="fill:url(#SVGID_00000003807749840923999740000003141650167714233747_);" d="M194.32,117.92
		c5.07-8.78,4.53-19.27-0.5-27.3l0,0l-1.56-2.66l-66.42,0.41l0,0c-9.48,0.34-18.82-4.43-23.89-13.22c-2.37-4.1-3.51-8.58-3.54-13
		c-1.63,13.05,0.81,26.73,7.9,39c15.97,27.67,49.89,38.5,78.56,26.31C188.67,125.22,191.96,122.01,194.32,117.92z"/>
	
		<linearGradient id="SVGID_00000054976036755142149120000010631292849865317022_" gradientUnits="userSpaceOnUse" x1="198.0124" y1="113.0668" x2="128.4837" y2="113.7211">
		<stop  offset="0" style="stop-color:#791957"/>
		<stop  offset="0.0142" style="stop-color:#7C1A58"/>
		<stop  offset="0.1569" style="stop-color:#9B205F"/>
		<stop  offset="0.3052" style="stop-color:#B62664"/>
		<stop  offset="0.4589" style="stop-color:#CB2B69"/>
		<stop  offset="0.6198" style="stop-color:#DB2E6C"/>
		<stop  offset="0.793" style="stop-color:#E5306E"/>
		<stop  offset="1" style="stop-color:#E8316E"/>
	</linearGradient>
	<path style="fill:url(#SVGID_00000054976036755142149120000010631292849865317022_);" d="M108.52,104.66
		c0.38,0.56,0.75,1.13,1.15,1.68c0.24,0.34,0.49,0.66,0.74,0.99c0.36,0.48,0.72,0.97,1.1,1.44c0.27,0.34,0.55,0.68,0.83,1.01
		c0.36,0.44,0.73,0.88,1.1,1.3c0.3,0.34,0.6,0.67,0.91,1.01c0.37,0.4,0.74,0.8,1.11,1.2c0.32,0.33,0.65,0.66,0.98,0.99
		c0.37,0.37,0.75,0.74,1.13,1.1c0.34,0.32,0.69,0.64,1.04,0.96c0.38,0.34,0.76,0.68,1.15,1.01c0.37,0.31,0.73,0.62,1.1,0.93
		c0.38,0.31,0.77,0.62,1.16,0.92c0.39,0.3,0.78,0.61,1.17,0.9c0.38,0.28,0.76,0.55,1.15,0.82c0.42,0.29,0.83,0.59,1.26,0.88
		c0.36,0.24,0.74,0.48,1.1,0.71c0.45,0.29,0.91,0.59,1.37,0.86c0.32,0.2,0.65,0.38,0.98,0.57c0.52,0.3,1.03,0.61,1.56,0.89
		c0.16,0.09,0.32,0.17,0.49,0.25c2.26,1.2,4.58,2.26,6.96,3.17c0.06,0.02,0.12,0.05,0.19,0.07c0.72,0.27,1.45,0.53,2.19,0.78
		c0.17,0.06,0.33,0.12,0.5,0.17c0.71,0.23,1.42,0.45,2.13,0.65c0.19,0.06,0.39,0.12,0.58,0.17c0.71,0.2,1.43,0.38,2.15,0.55
		c0.2,0.05,0.39,0.1,0.59,0.14c0.73,0.17,1.46,0.32,2.19,0.46c0.19,0.04,0.37,0.07,0.56,0.11c0.75,0.14,1.5,0.26,2.26,0.37
		c0.16,0.02,0.33,0.05,0.49,0.07c0.78,0.11,1.57,0.21,2.36,0.29c0.12,0.01,0.25,0.02,0.37,0.04c0.83,0.08,1.66,0.14,2.5,0.19
		c0.06,0,0.13,0.01,0.19,0.01c9.24,0.48,18.66-1.08,27.58-4.87c3.79-2.24,7.08-5.45,9.44-9.54c1.62-2.81,2.66-5.79,3.17-8.81
		l-65.98,0.41l0,0c-9.46,0.34-23.23-5.8-28.33-14.56c0,0,0,0,0,0c0.42,0.97,0.88,1.93,1.35,2.88c0.07,0.13,0.13,0.26,0.2,0.39
		c0.5,0.98,1.02,1.95,1.57,2.92c0.52,0.9,1.06,1.78,1.62,2.65C108.12,104.09,108.32,104.37,108.52,104.66z"/>
</g>
<g>
	<text transform="matrix(1 0 0 1 518.7579 155.9674)" class="st6 st16" style="font-size:14.7723px;"> Innovación Total con Inteligencia Artificial</text>
</g>
<g>
	<text transform="matrix(1 0 0 1 10.0588 209.7972)" class="st6 st16 st17"> Innovación Total con Inteligencia Artificial</text>
</g>
<text transform="matrix(1 0 0 1 242.9263 193.7944)" class="st18 st7 st19 st20">IA</text>
</svg>
